<svg id="cube" enable-background="new 0 0 300 300" height="512" viewBox="0 0 300 300" width="512" xmlns="http://www.w3.org/2000/svg"><g><path d="m265.151 74.646-112-48c-2.012-.861-4.291-.861-6.303 0l-112 48c-2.941 1.261-4.848 4.154-4.848 7.354v136c0 3.2 1.907 6.093 4.849 7.354l112 48 .006-.013c1.001.429 2.069.66 3.147.66 1.067 0 2.14-.214 3.15-.646l112-48c2.941-1.262 4.848-4.155 4.848-7.355v-136c0-3.2-1.907-6.093-4.849-7.354zm-115.151-31.942 91.691 39.296-91.691 39.296-91.691-39.296zm-104 170.02v-118.592l96 41.143v118.592zm112 41.143v-118.592l96-41.143v118.592z"/></g></svg>