<svg version="1.1" id="Capa_1" xmlns="http://www.w3.org/2000/svg" xmlns:xlink="http://www.w3.org/1999/xlink" x="0px" y="0px"
	 viewBox="0 0 512.002 512.002" style="enable-background:new 0 0 512.002 512.002;" xml:space="preserve">
<g>
	<g>
		<g>
			<path d="M96,207.001h15c5.523,0,10-4.478,10-10v-14.999c0-5.523-4.477-10-10-10H96c-5.524,0-10,4.477-10,10v14.999
				C86,202.523,90.476,207.001,96,207.001z"/>
			<path d="M96,267.002h15c5.523,0,10-4.478,10-10V242c0-5.523-4.477-10-10-10H96c-5.524,0-10,4.477-10,10v15.002
				C86,262.524,90.476,267.002,96,267.002z"/>
			<path d="M96,327h15c5.523,0,10-4.477,10-10v-14.999c0-5.522-4.477-10-10-10H96c-5.524,0-10,4.478-10,10V317
				C86,322.522,90.476,327,96,327z"/>
			<path d="M96,386.997h15c5.523,0,10-4.478,10-10v-14.998c0-5.522-4.477-10-10-10H96c-5.524,0-10,4.478-10,10v14.998
				C86,382.519,90.476,386.997,96,386.997z"/>
			<path d="M148.5,207.001h15.001c5.522,0,10-4.478,10-10v-14.999c0-5.523-4.478-10-10-10H148.5c-5.523,0-10,4.477-10,10v14.999
				C138.5,202.523,142.977,207.001,148.5,207.001z"/>
			<path d="M148.5,267.002h15.001c5.522,0,10-4.478,10-10V242c0-5.523-4.478-10-10-10H148.5c-5.523,0-10,4.477-10,10v15.002
				C138.5,262.524,142.977,267.002,148.5,267.002z"/>
			<path d="M148.5,327h15.001c5.522,0,10-4.477,10-10v-14.999c0-5.522-4.478-10-10-10H148.5c-5.523,0-10,4.478-10,10V317
				C138.5,322.522,142.977,327,148.5,327z"/>
			<path d="M148.5,386.997h15.001c5.522,0,10-4.478,10-10v-14.998c0-5.522-4.478-10-10-10H148.5c-5.523,0-10,4.478-10,10v14.998
				C138.5,382.519,142.977,386.997,148.5,386.997z"/>
			<path d="M201.001,207.001h15.001c5.523,0,10-4.478,10-10v-14.999c0-5.523-4.477-10-10-10h-15.001c-5.522,0-10,4.477-10,10v14.999
				C191.001,202.523,195.478,207.001,201.001,207.001z"/>
			<path d="M201.001,267.002h15.001c5.523,0,10-4.478,10-10V242c0-5.523-4.477-10-10-10h-15.001c-5.522,0-10,4.477-10,10v15.002
				C191.001,262.524,195.478,267.002,201.001,267.002z"/>
			<path d="M201.001,327h15.001c5.523,0,10-4.477,10-10v-14.999c0-5.522-4.477-10-10-10h-15.001c-5.522,0-10,4.478-10,10V317
				C191.001,322.522,195.478,327,201.001,327z"/>
			<path d="M201.001,386.997h15.001c5.523,0,10-4.478,10-10v-14.998c0-5.522-4.477-10-10-10h-15.001c-5.522,0-10,4.478-10,10v14.998
				C191.001,382.519,195.478,386.997,201.001,386.997z"/>
			<path d="M296,207.001h15c5.523,0,10-4.478,10-10v-14.999c0-5.523-4.477-10-10-10h-15c-5.524,0-10,4.477-10,10v14.999
				C286,202.523,290.476,207.001,296,207.001z"/>
			<path d="M296,147.003h15c5.523,0,10-4.478,10-10v-14.998c0-5.522-4.477-10-10-10h-15c-5.524,0-10,4.478-10,10v14.998
				C286,142.525,290.476,147.003,296,147.003z"/>
			<path d="M296,87.006h15c5.523,0,10-4.478,10-10V62.003c0-5.522-4.477-10-10-10h-15c-5.524,0-10,4.478-10,10v15.003
				C286,82.528,290.476,87.006,296,87.006z"/>
			<path d="M296,267.002h15c5.523,0,10-4.478,10-10V242c0-5.523-4.477-10-10-10h-15c-5.524,0-10,4.477-10,10v15.002
				C286,262.524,290.476,267.002,296,267.002z"/>
			<path d="M296,327h15c5.523,0,10-4.477,10-10v-14.999c0-5.522-4.477-10-10-10h-15c-5.524,0-10,4.478-10,10V317
				C286,322.522,290.476,327,296,327z"/>
			<path d="M296,386.997h15c5.523,0,10-4.478,10-10v-14.998c0-5.522-4.477-10-10-10h-15c-5.524,0-10,4.478-10,10v14.998
				C286,382.519,290.476,386.997,296,386.997z"/>
			<path d="M348.5,207.001h15c5.523,0,10-4.478,10-10v-14.999c0-5.523-4.477-10-10-10h-15c-5.522,0-10,4.477-10,10v14.999
				C338.5,202.523,342.978,207.001,348.5,207.001z"/>
			<path d="M348.5,147.003h15c5.523,0,10-4.478,10-10v-14.998c0-5.522-4.477-10-10-10h-15c-5.522,0-10,4.478-10,10v14.998
				C338.5,142.525,342.978,147.003,348.5,147.003z"/>
			<path d="M348.5,87.006h15c5.523,0,10-4.478,10-10V62.003c0-5.522-4.477-10-10-10h-15c-5.522,0-10,4.478-10,10v15.003
				C338.5,82.528,342.978,87.006,348.5,87.006z"/>
			<path d="M348.5,267.002h15c5.523,0,10-4.478,10-10V242c0-5.523-4.477-10-10-10h-15c-5.522,0-10,4.477-10,10v15.002
				C338.5,262.524,342.978,267.002,348.5,267.002z"/>
			<path d="M348.5,327h15c5.523,0,10-4.477,10-10v-14.999c0-5.522-4.477-10-10-10h-15c-5.522,0-10,4.478-10,10V317
				C338.5,322.522,342.978,327,348.5,327z"/>
			<path d="M348.5,386.997h15c5.523,0,10-4.478,10-10v-14.998c0-5.522-4.477-10-10-10h-15c-5.522,0-10,4.478-10,10v14.998
				C338.5,382.519,342.978,386.997,348.5,386.997z"/>
			<path d="M401,207.001h14.999c5.522,0,10-4.478,10-10v-14.999c0-5.523-4.478-10-10-10H401c-5.522,0-10,4.477-10,10v14.999
				C391,202.523,395.478,207.001,401,207.001z"/>
			<path d="M401,147.003h14.999c5.522,0,10-4.478,10-10v-14.998c0-5.522-4.478-10-10-10H401c-5.522,0-10,4.478-10,10v14.998
				C391,142.525,395.478,147.003,401,147.003z"/>
			<path d="M401,87.006h14.999c5.522,0,10-4.478,10-10V62.003c0-5.522-4.478-10-10-10H401c-5.522,0-10,4.478-10,10v15.003
				C391,82.528,395.478,87.006,401,87.006z"/>
			<path d="M401,267.002h14.999c5.522,0,10-4.478,10-10V242c0-5.523-4.478-10-10-10H401c-5.522,0-10,4.477-10,10v15.002
				C391,262.524,395.478,267.002,401,267.002z"/>
			<path d="M401,327h14.999c5.522,0,10-4.477,10-10v-14.999c0-5.522-4.478-10-10-10H401c-5.522,0-10,4.478-10,10V317
				C391,322.522,395.478,327,401,327z"/>
			<path d="M401,386.997h14.999c5.522,0,10-4.478,10-10v-14.998c0-5.522-4.478-10-10-10H401c-5.522,0-10,4.478-10,10v14.998
				C391,382.519,395.478,386.997,401,386.997z"/>
			<path d="M115.764,452.003c-5.523,0-10,4.478-10,10c0,5.523,4.477,10,10,10H116c5.522,0,10-4.477,10-10s-4.478-10-10-10H115.764z"
				/>
			<path d="M315.764,452.003c-5.523,0-10,4.478-10,10c0,5.523,4.477,10,10,10h0.235c5.522,0,10-4.477,10-10c0-5.522-4.478-10-10-10
				H315.764z"/>
			<path d="M10.236,492.001H10c-5.524,0-10,4.478-10,10c0,5.522,4.476,10,10,10h0.236c5.522,0,10-4.478,10-10
				C20.236,496.478,15.759,492.001,10.236,492.001z"/>
			<path d="M502.002,492.001h-0.238c-5.523,0-10,4.478-10,10c0,5.522,4.477,10,10,10h0.238c5.523,0,10-4.478,10-10
				C512.002,496.478,507.524,492.001,502.002,492.001z"/>
			<path d="M473.034,492.001h-7.037v-482c0-5.523-4.478-10-10-10H256c-5.524,0-10,4.477-10,10v122.003H56c-5.524,0-10,4.478-10,10
				v349.997h-7.033c-5.523,0-10,4.478-10,10c0,5.522,4.477,10,10,10H56h100h60.002H256h100h59.999h39.998h0.001H456h17.034
				c5.523,0,10-4.478,10-10C483.034,496.478,478.557,492.001,473.034,492.001z M206.002,492.001H166v-39.997h40.002V492.001z
				 M246,492.001h-19.998v-49.997c0-5.522-4.477-10-10-10H156c-5.524,0-10,4.478-10,10v49.997H66v-19.998h21.034
				c5.522,0,10-4.477,10-10c0-5.522-4.478-10-10-10H66V152.004h180V492.001z M405.999,492.001H366v-39.997h39.999V492.001z
				 M445.997,492.001h-19.998v-49.997c0-5.522-4.478-10-10-10H356c-5.523,0-10,4.478-10,10v49.997h-80v-19.998h21.033
				c5.523,0,10-4.477,10-10c0-5.522-4.477-10-10-10H266V142.004V20.001h179.997V492.001z"/>
		</g>
	</g>
</g>
<g>
</g>
<g>
</g>
<g>
</g>
<g>
</g>
<g>
</g>
<g>
</g>
<g>
</g>
<g>
</g>
<g>
</g>
<g>
</g>
<g>
</g>
<g>
</g>
<g>
</g>
<g>
</g>
<g>
</g>
</svg>
